# xmcd CD database file generated by Grip 2.95
# 
# Track frame offsets:
#       150
#       11287
#       39919
#       51029
#       74240
#       90036
#       118277
#       138738
#       153876
#       179661
#       203709
#       221925
#       240187
#       254576
#       265775
#       269455
#       280062
#       287469
#       298457
#       303173
#       309117
#       317311
#       326444
# 
# Disc length: 4441 seconds
# 
# Revision: 3
# Processed by: cddbd v1.4b42PL1 Copyright (c) Steve Scherf et al.
# Submitted via: Grip 2.95
# 
DISCID=4e115717
DTITLE=David Harp - Instant Blues
DYEAR=1900
DGENRE=
TTITLE0=Intro
TTITLE1=Technique for total beginners
TTITLE2=Chicago Blues
TTITLE3=Boogie Woogie Blues
TTITLE4=Train Time
TTITLE5=Rock Style Blues
TTITLE6=Technique for advanced beginners
TTITLE7=Playing Folk Songs
TTITLE8=Boogie Woogie Improv
TTITLE9=Chicago Blues Improv
TTITLE10=Rockin Blues Improv
TTITLE11=Technique for almost intermediates
TTITLE12=The Blues Scale
TTITLE13=Using the blues scale
TTITLE14=Blues Train Time
TTITLE15=Classic Blues Riffs
TTITLE16=Technique for Intermediate players
TTITLE17=Swingin the beat
TTITLE18=A minute of music theory
TTITLE19=Twelve Bar blues structure
TTITLE20=The Boogie Woogie Playalong
TTITLE21=Chicago Blues Playalong
TTITLE22=Rock Blues Playalong
EXTD=
EXTT0=
EXTT1=
EXTT2=
EXTT3=
EXTT4=
EXTT5=
EXTT6=
EXTT7=
EXTT8=
EXTT9=
EXTT10=
EXTT11=
EXTT12=
EXTT13=
EXTT14=
EXTT15=
EXTT16=
EXTT17=
EXTT18=
EXTT19=
EXTT20=
EXTT21=
EXTT22=
PLAYORDER=
